<svg id="Capa_1" enable-background="new 0 0 512 512" height="512" viewBox="0 0 512 512" width="512" xmlns="http://www.w3.org/2000/svg"><g><g><path d="m84.273 7.5h343.455v464.675h-343.455z" fill="#f4fbff"/></g><g><path d="m169.668 308.078c-8.457 2.621-14.221 10.444-14.221 19.297v64.79c0 29.474 9.822 57.449 27.318 80.01h146.471c17.496-22.561 27.318-50.536 27.318-80.01v-64.79c0-8.854-5.765-16.676-14.221-19.297l-80.35-24.907c-3.896-1.208-8.067-1.208-11.964 0z" fill="#dfeaef"/></g><g><path d="m144.882 37.805h222.236v30.305h-222.236z" fill="#80cb8e"/></g><g><path d="m407.525 7.5h20.203v464.675h-20.203z" fill="#dfeaef"/></g><g><path d="m225.596 484.585c-31.274-20.485-49.946-55.035-49.946-92.421v-64.789l80.35-24.908 80.35 24.908v64.789c0 37.386-18.671 71.936-49.946 92.421l-30.404 19.915z" fill="#f6e266"/></g><g><path d="m318.63 321.883v59.17c0 37.386-18.671 71.936-49.946 92.421l-30.026 19.667 17.342 11.359 30.404-19.915c31.274-20.485 49.946-55.035 49.946-92.421v-64.789z" fill="#ecbe6b"/></g><g><path d="m242.201 459.234c-22.696-14.865-36.246-39.938-36.246-67.069v-42.456l50.045-15.514 50.045 15.513v42.456c0 27.13-13.549 52.203-36.246 67.069l-13.8 9.039z" fill="#eab14d"/></g><g><path d="m374.618 68.109v-30.304c0-4.143-3.357-7.5-7.5-7.5h-222.236c-4.142 0-7.5 3.357-7.5 7.5v30.305c0 4.143 3.358 7.5 7.5 7.5h222.236c4.143-.001 7.5-3.358 7.5-7.501zm-15-7.5h-207.236v-15.304h207.236z"/><path d="m188.319 95.966c-4.142 0-7.5 3.357-7.5 7.5s3.358 7.5 7.5 7.5h135.361c4.143 0 7.5-3.357 7.5-7.5s-3.357-7.5-7.5-7.5z"/><path d="m124.679 171.534h262.642c4.143 0 7.5-3.357 7.5-7.5s-3.357-7.5-7.5-7.5h-262.642c-4.142 0-7.5 3.357-7.5 7.5s3.358 7.5 7.5 7.5z"/><path d="m117.179 133.771c0 4.143 3.358 7.5 7.5 7.5h262.642c4.143 0 7.5-3.357 7.5-7.5s-3.357-7.5-7.5-7.5h-262.642c-4.142 0-7.5 3.357-7.5 7.5z"/><path d="m124.679 202.799h262.642c4.143 0 7.5-3.357 7.5-7.5s-3.357-7.5-7.5-7.5h-262.642c-4.142 0-7.5 3.357-7.5 7.5s3.358 7.5 7.5 7.5z"/><path d="m124.679 234.063h131.321c4.142 0 7.5-3.357 7.5-7.5s-3.357-7.5-7.5-7.5h-131.321c-4.142 0-7.5 3.357-7.5 7.5s3.358 7.5 7.5 7.5z"/><path d="m124.679 265.327h60.61c4.142 0 7.5-3.357 7.5-7.5s-3.358-7.5-7.5-7.5h-60.61c-4.142 0-7.5 3.357-7.5 7.5s3.358 7.5 7.5 7.5z"/><path d="m387.321 250.327h-60.609c-4.143 0-7.5 3.357-7.5 7.5s3.357 7.5 7.5 7.5h60.609c4.143 0 7.5-3.357 7.5-7.5s-3.357-7.5-7.5-7.5z"/><path d="m427.728 164.5c-4.143 0-7.5 3.357-7.5 7.5v292.675h-101.257c15.931-20.416 24.88-45.78 24.88-72.51v-64.789c0-3.287-2.14-6.19-5.279-7.164l-80.35-24.908c-1.447-.447-2.996-.447-4.442 0l-80.35 24.908c-3.139.974-5.279 3.877-5.279 7.164v64.789c0 26.73 8.949 52.094 24.879 72.51h-101.258v-71.479c0-4.143-3.358-7.5-7.5-7.5s-7.5 3.357-7.5 7.5v78.979c0 4.143 3.358 7.5 7.5 7.5h122.711c4.497 4.057 9.338 7.802 14.504 11.185v-.001l30.404 19.915c1.248.817 2.679 1.226 4.109 1.226 1.431 0 2.862-.409 4.11-1.227l30.403-19.914c5.165-3.383 10.006-7.127 14.503-11.185h122.711c4.143 0 7.5-3.357 7.5-7.5v-300.174c.001-4.143-3.357-7.5-7.499-7.5zm-145.433 313.812-26.295 17.222-26.295-17.224c-29.151-19.094-46.555-51.298-46.555-86.146v-59.262l72.85-22.582 72.85 22.583v59.262c.001 34.848-17.404 67.052-46.555 86.147z"/><path d="m427.728 0h-343.456c-4.142 0-7.5 3.357-7.5 7.5v350.624c0 4.143 3.358 7.5 7.5 7.5s7.5-3.357 7.5-7.5v-343.124h328.455v121.984c0 4.143 3.357 7.5 7.5 7.5s7.5-3.357 7.5-7.5v-129.484c.001-4.143-3.357-7.5-7.499-7.5z"/><path d="m313.546 349.708c0-3.287-2.14-6.19-5.279-7.164l-50.046-15.513c-1.445-.447-2.995-.447-4.441 0l-50.045 15.513c-3.139.974-5.279 3.877-5.279 7.164v42.457c0 29.669 14.817 57.087 39.637 73.343l13.799 9.039c1.248.817 2.679 1.227 4.109 1.227 1.431 0 2.862-.409 4.11-1.227l13.799-9.038c24.819-16.257 39.637-43.675 39.637-73.344v-42.457zm-15 42.457c0 24.593-12.282 47.32-32.855 60.796l-9.69 6.347-9.69-6.347v-.001c-20.573-13.475-32.855-36.202-32.855-60.795v-36.93l42.544-13.187 42.545 13.188v36.929z"/></g></g></svg>